<?xml version="1.0" standalone="no"?>
<!DOCTYPE svg PUBLIC "-//W3C//DTD SVG 20010904//EN"
 "http://www.w3.org/TR/2001/REC-SVG-20010904/DTD/svg10.dtd">
<svg version="1.0" xmlns="http://www.w3.org/2000/svg"
 width="512.000000pt" height="512.000000pt" viewBox="0 0 512.000000 512.000000"
 preserveAspectRatio="xMidYMid meet">
<metadata>
Created by potrace 1.14, written by Peter Selinger 2001-2017
</metadata>
<g transform="translate(0.000000,512.000000) scale(0.100000,-0.100000)"
fill="#000000" stroke="none">
<path d="M700 5085 c-169 -34 -334 -126 -450 -251 -94 -101 -143 -185 -193
-326 l-32 -93 -2 -1805 c-3 -1977 -6 -1855 57 -2018 49 -127 127 -233 263
-358 25 -22 167 -104 182 -104 9 0 18 -7 21 -15 4 -8 10 -12 15 -9 5 2 17 1
26 -5 10 -5 32 -11 50 -14 17 -3 37 -8 43 -12 6 -4 34 -8 63 -10 35 -3 51 -8
49 -16 -2 -9 1 -9 10 -2 16 13 217 12 237 -1 9 -6 12 -5 8 1 -8 13 212 12 232
-1 9 -6 12 -5 8 1 -8 13 212 12 232 -1 9 -6 12 -5 8 1 -8 13 212 12 232 -1 9
-6 12 -5 8 1 -8 13 212 12 232 -1 9 -6 12 -5 8 1 -8 13 212 12 232 -1 9 -6 12
-5 8 1 -8 13 212 12 232 -1 9 -6 12 -5 8 1 -8 13 212 12 232 -1 9 -6 12 -5 8
1 -8 13 212 12 232 -1 9 -6 12 -5 8 1 -8 13 212 12 232 -1 9 -6 12 -5 8 1 -8
13 212 12 232 -1 9 -6 12 -5 8 1 -8 13 212 12 232 -1 9 -6 12 -5 8 1 -8 13
212 12 232 -1 9 -6 12 -5 8 1 -8 13 212 12 232 -1 9 -6 12 -5 7 2 -4 7 21 10
83 9 49 -1 88 1 85 4 -2 4 8 7 21 8 14 1 36 3 50 4 14 1 25 7 25 12 0 6 5 3
10 -5 7 -11 10 -12 10 -2 0 9 7 11 23 7 17 -5 19 -4 7 4 -11 8 -11 11 -2 12
17 2 23 4 57 18 17 7 40 14 52 14 11 1 19 6 15 11 -3 5 3 6 14 2 10 -4 15 -4
11 0 -6 7 19 30 35 33 5 1 19 11 32 22 13 12 27 21 30 20 3 -1 15 8 26 19 12
12 25 18 30 15 6 -3 7 1 4 10 -5 11 0 18 15 22 11 3 18 10 14 16 -4 6 0 8 11
4 9 -4 15 -3 12 1 -7 12 24 53 35 47 5 -3 6 2 2 11 -4 12 -3 15 5 10 7 -4 12
-1 12 9 0 9 4 13 10 10 6 -3 10 3 10 14 0 12 4 21 9 21 5 0 14 13 21 30 7 16
17 30 22 30 5 0 6 5 3 10 -3 6 -1 10 5 10 6 0 8 4 5 10 -3 5 -1 10 5 10 6 0 8
4 5 10 -3 5 -1 10 5 10 6 0 8 5 5 10 -3 6 -1 10 4 10 6 0 10 3 10 8 -4 21 2
42 10 38 5 -4 7 3 4 14 -4 15 0 20 13 20 14 0 15 3 6 8 -7 5 -10 16 -6 25 3 9
11 14 17 10 6 -4 7 -1 1 8 -10 16 -6 59 7 75 5 6 4 15 -3 22 -7 7 -8 12 -2 12
11 0 12 3463 0 3560 -4 36 -14 85 -22 109 -8 24 -12 51 -10 58 3 8 1 11 -4 8
-6 -3 -10 -2 -10 3 0 31 -71 155 -135 236 -116 147 -273 244 -492 303 -15 4
-836 8 -1823 9 -1446 2 -1808 0 -1860 -11z"/>
</g>
</svg>
